<svg width="251px" height="99px" viewBox="0 0 251 99" version="1.1" xmlns="http://www.w3.org/2000/svg" xmlns:xlink="http://www.w3.org/1999/xlink">
    <g id="Page-1" stroke="none" stroke-width="1" fill="none" fill-rule="evenodd">
        <g id="Mobile" transform="translate(-53.000000, -79.000000)">
            <g id="my-reads-logo-copy-4" transform="translate(56.000000, 82.000000)">
                <g id="book" stroke="#3B4859" stroke-linecap="round" stroke-linejoin="round" stroke-width="6">
                    <path d="M52.8059633,92.1037735 C34.7365494,86.1405822 17.4937217,86.1405822 1.07748026,92.1037735 L0.686469053,20.0289624 C4.47870277,18.059776 9.26667337,16.5960749 15.0503809,15.637859" id="Path-4" fill="#2CA3E4"></path>
                    <path d="M53.1085657,20.8929393 C54.8709912,20.8929393 78.4236665,7.62682898 105.922392,20.8929393 C105.920606,28.1755041 105.923286,32.1559872 105.922702,35.7972696 M105.905142,81.3784447 C105.903956,86.2112127 105.907919,79.8848156 105.905142,91.2038275 C89.0212203,85.3111356 71.694536,85.6130359 53.9250891,92.1095285" id="Path-5"></path>
                    <path d="M15.1761657,0.937302395 C28.7959103,0.0409533121 41.4707112,6.44656408 53.2005683,20.1541347 L53.6282368,92.5361216 C40.8108798,79.3177303 27.9935228,72.7085346 15.1761657,72.7085346 C15.1761657,44.0565371 15.1761657,20.1327931 15.1761657,0.937302395 Z" id="Path-3" fill="#FC6E51"></path>
                </g>
                <path d="M100.428175,65.9553719 L94.6532944,65.9553719 L94.6532944,53.261157 C94.6532944,52.044622 94.3919902,51.0000044 93.8693739,50.1272727 C93.3467577,49.2545411 92.6325262,48.8181818 91.7266581,48.8181818 C90.2633327,48.8181818 89.1266594,49.3603252 88.3166043,50.4446281 C87.5065491,51.528931 87.1015276,52.9261622 87.1015276,54.6363636 L87.1015276,65.9553719 L81.3266472,65.9553719 L81.3266472,53.261157 C81.3266472,52.062253 81.065343,51.0396737 80.5427268,50.1933884 C79.9852694,49.2765794 79.2536177,48.8181818 78.3477496,48.8181818 C76.8844241,48.8181818 75.7608161,49.3603252 74.9768918,50.4446281 C74.1929674,51.528931 73.8010111,52.9437929 73.8010111,54.6892562 L73.8010111,65.9553719 L68,65.9553719 L68,43.5289256 L73.8010111,43.5289256 L73.8010111,46.3586777 C75.246916,44.9834642 76.8321615,44.1019303 78.556795,43.7140496 C78.9923085,43.6082639 79.453946,43.5553719 79.9417211,43.5553719 C82.7812693,43.5553719 84.8455724,44.7983347 86.1346924,47.2842975 C87.6677,45.4330486 89.6013511,44.2429779 91.9357036,43.7140496 C92.3712171,43.6082639 92.8328545,43.5553719 93.3206296,43.5553719 C95.1497864,43.5553719 96.7350319,44.1724456 98.0764135,45.4066116 C99.6442622,46.8876107 100.428175,48.923954 100.428175,51.5157025 L100.428175,65.9553719 Z M125.687741,43.5289256 L108.127924,75 L101.4646,75 L109.382196,61.168595 L99.5570604,43.5289256 L106.089731,43.5289256 L112.674662,55.2181818 L119.155071,43.5289256 L125.687741,43.5289256 Z M146.271291,43.7404959 L144.128575,49.6380165 C143.205287,49.3030286 142.447504,49.1355372 141.855206,49.1355372 C140.478983,49.1355372 139.3336,49.7041265 138.419021,50.8413223 C137.504443,51.9785181 137.047161,53.2611499 137.047161,54.6892562 L137.047161,65.9553719 L131.24615,65.9553719 L131.24615,43.5024793 L137.047161,43.5024793 L137.047161,46.2793388 C138.702112,44.1988877 140.766415,43.1586777 143.240132,43.1586777 C143.971795,43.1586777 144.982171,43.3526151 146.271291,43.7404959 Z M163.118149,56.9636364 L151.122796,56.9636364 C152.115767,59.2732898 153.857794,60.4280992 156.348932,60.4280992 C159.363207,60.4280992 161.619591,59.2732897 163.118149,56.9636364 Z M163.272347,56.9636364 L167.611255,60.2958678 C164.667184,64.0688894 160.913114,65.9553719 156.348932,65.9553719 C153.195814,65.9553719 150.513091,64.8358239 148.300682,62.5966942 C146.123115,60.4104574 145.034347,57.8011171 145.034347,54.768595 C145.034347,51.736073 146.131825,49.1046943 148.326813,46.8743802 C150.521801,44.644066 153.195814,43.5289256 156.348932,43.5289256 C159.51947,43.5289256 162.202193,44.644066 164.397182,46.8743802 C166.59217,49.1046943 167.689647,51.736073 167.689647,54.768595 C167.689647,55.3151542 167.619966,56.0468274 167.480602,56.9636364 L163.272347,56.9636364 Z M161.496676,52.3090909 C160.434023,50.140485 158.718125,49.0561983 156.348932,49.0561983 C153.997159,49.0561983 152.289971,50.140485 151.227318,52.3090909 L161.496676,52.3090909 Z M191.851725,65.9553719 L186.129106,65.9553719 L186.129106,64.0247934 C184.508996,65.3118522 182.505664,65.9553719 180.119049,65.9553719 C176.91367,65.9553719 174.169976,64.8666776 171.887885,62.6892562 C169.605794,60.5118348 168.464766,57.8804562 168.464766,54.7950413 C168.464766,51.7096264 169.605794,49.0606171 171.887885,46.8479339 C174.169976,44.6352506 176.91367,43.5289256 180.119049,43.5289256 C182.314038,43.5289256 184.31737,44.2253374 186.129106,45.6181818 L186.129106,43.5289256 L191.851725,43.5289256 L191.851725,65.9553719 Z M186.129106,54.7950413 C186.129106,53.2435184 185.536816,51.8991792 184.35222,50.7619835 C183.167623,49.6247877 181.75658,49.0561983 180.119049,49.0561983 C178.498939,49.0561983 177.105317,49.62038 175.93814,50.7487603 C174.770964,51.8771406 174.187385,53.2258875 174.187385,54.7950413 C174.187385,56.3465642 174.770964,57.6732727 175.93814,58.7752066 C177.105317,59.8771405 178.498939,60.4280992 180.119049,60.4280992 C181.774001,60.4280992 183.189399,59.8771405 184.365285,58.7752066 C185.541172,57.6732727 186.129106,56.3465642 186.129106,54.7950413 Z M216.536416,65.9553719 L210.813797,65.9553719 L210.813797,63.9719008 C209.193687,65.2942215 207.190355,65.9553719 204.803741,65.9553719 C201.598361,65.9553719 198.854667,64.8402315 196.572576,62.6099174 C194.290486,60.3796032 193.149457,57.6865172 193.149457,54.5305785 C193.149457,51.3746399 194.290486,48.6639232 196.572576,46.3983471 C198.854667,44.132771 201.598361,43 204.803741,43 C206.998729,43 209.002061,43.7140424 210.813797,45.1421488 L210.813797,27 L216.536416,27 L216.536416,65.9553719 Z M210.813797,54.5305785 C210.813797,52.9261628 210.221508,51.5465622 209.036911,50.3917355 C207.852314,49.2369088 206.441272,48.6595041 204.803741,48.6595041 C203.183631,48.6595041 201.790008,49.2369088 200.622832,50.3917355 C199.455656,51.5465622 198.872076,52.9261628 198.872076,54.5305785 C198.872076,56.1173633 199.455656,57.4749255 200.622832,58.6033058 C201.790008,59.7316861 203.183631,60.2958678 204.803741,60.2958678 C206.458692,60.2958678 207.87409,59.7316861 209.049976,58.6033058 C210.225863,57.4749255 210.813797,56.1173633 210.813797,54.5305785 Z M239,46.6231405 L236.047233,50.5900826 C233.36447,48.9856669 230.847239,48.1834711 228.495466,48.1834711 C227.728963,48.1834711 227.053927,48.3597779 226.470339,48.7123967 C225.88675,49.0650155 225.594961,49.5145978 225.594961,50.061157 C225.594961,50.5900853 226.134989,51.0396676 227.215063,51.4099174 C228.173193,51.6567505 229.671337,52.0358101 231.70954,52.5471074 C236.413086,53.7636424 238.764824,55.9939232 238.764824,59.2380165 C238.764824,61.5829318 237.737027,63.3900763 235.681404,64.6595041 C233.974191,65.6997297 231.892467,66.2198347 229.436171,66.2198347 C227.328285,66.2198347 225.229142,65.7790678 223.138677,64.8975207 C220.908848,63.9454498 219.071008,62.6407796 217.625103,60.9834711 L221.283398,57.0958678 C224.018423,59.5994616 226.735987,60.8512397 229.436171,60.8512397 C231.544056,60.8512397 232.597983,60.3046887 232.597983,59.2115702 C232.597983,58.6473801 232.057955,58.1977978 230.977881,57.8628099 C230.019751,57.6512386 228.512897,57.3074404 226.457273,56.831405 C221.701466,55.7382865 219.323597,53.4815598 219.323597,50.061157 C219.323597,47.7691345 220.342684,45.9708054 222.380887,44.6661157 C224.105521,43.5553663 226.161114,43 228.547728,43 C232.275723,43 235.759779,44.2077014 239,46.6231405 Z" id="my-reads" fill="#3B4859"></path>
                <circle id="Oval-2" fill="#FC6E51" cx="244.5" cy="60.5" r="3.5"></circle>
            </g>
        </g>
    </g>
</svg>